<svg width="20" height="20" viewBox="0 0 20 20" fill="none" xmlns="http://www.w3.org/2000/svg">
<path fill-rule="evenodd" clip-rule="evenodd" d="M12.3174 16.4177C14.2422 13.9632 16.6667 10.3972 16.6667 8.0079C16.6667 4.04585 13.6819 0.833984 10 0.833984C6.31814 0.833984 3.33337 4.04585 3.33337 8.0079C3.33337 10.3972 5.75792 13.9632 7.68271 16.4177C8.68691 17.6983 9.18901 18.3385 10 18.3385C10.8111 18.3385 11.3132 17.6983 12.3174 16.4177ZM10 10.834C8.61933 10.834 7.50004 9.7147 7.50004 8.33398C7.50004 6.95327 8.61933 5.83398 10 5.83398C11.3808 5.83398 12.5 6.95327 12.5 8.33398C12.5 9.7147 11.3808 10.834 10 10.834Z" stroke="#AF52DE" stroke-width="1.5"/>
</svg>
